<svg width="600" height="400" viewBox="0 0 600 400" xmlns="http://www.w3.org/2000/svg">
  <rect width="100%" height="100%" fill="#f8f9fa"/>
  
  <!-- Background Elements -->
  <circle cx="150" cy="100" r="80" fill="#e9ecef"/>
  <circle cx="450" cy="300" r="60" fill="#e9ecef"/>
  <rect x="300" y="50" width="150" height="100" rx="10" fill="#e9ecef"/>
  <rect x="100" y="240" width="120" height="80" rx="10" fill="#e9ecef"/>
  
  <!-- Calendar Icon -->
  <rect x="250" y="150" width="100" height="100" rx="10" fill="#3a86ff"/>
  <rect x="265" y="170" width="70" height="65" rx="5" fill="white"/>
  
  <!-- Calendar Details -->
  <rect x="275" y="180" width="10" height="10" rx="2" fill="#3a86ff"/>
  <rect x="295" y="180" width="10" height="10" rx="2" fill="#3a86ff"/>
  <rect x="315" y="180" width="10" height="10" rx="2" fill="#3a86ff"/>
  
  <rect x="275" y="200" width="10" height="10" rx="2" fill="#3a86ff"/>
  <rect x="295" y="200" width="10" height="10" rx="2" fill="#dc3545"/>
  <rect x="315" y="200" width="10" height="10" rx="2" fill="#3a86ff"/>
  
  <rect x="275" y="220" width="10" height="10" rx="2" fill="#3a86ff"/>
  <rect x="295" y="220" width="10" height="10" rx="2" fill="#3a86ff"/>
  <rect x="315" y="220" width="10" height="10" rx="2" fill="#28a745"/>
  
  <!-- People Icons -->
  <circle cx="150" cy="180" r="20" fill="#6c757d"/>
  <circle cx="150" cy="165" r="10" fill="#6c757d"/>
  
  <circle cx="190" cy="180" r="20" fill="#6c757d"/>
  <circle cx="190" cy="165" r="10" fill="#6c757d"/>
  
  <circle cx="230" cy="180" r="20" fill="#6c757d"/>
  <circle cx="230" cy="165" r="10" fill="#6c757d"/>
  
  <!-- Check Mark -->
  <circle cx="400" cy="200" r="30" fill="#28a745"/>
  <path d="M385 200 L395 210 L415 190" stroke="white" stroke-width="6" fill="none"/>
  
  <!-- Chart Element -->
  <rect x="350" y="250" width="15" height="50" fill="#3a86ff"/>
  <rect x="375" y="235" width="15" height="65" fill="#3a86ff"/>
  <rect x="400" y="260" width="15" height="40" fill="#3a86ff"/>
  <rect x="425" y="220" width="15" height="80" fill="#3a86ff"/>
  <rect x="450" y="245" width="15" height="55" fill="#3a86ff"/>
  
  <!-- Text "Attendance" -->
  <text x="300" y="330" font-family="Arial" font-size="20" font-weight="bold" text-anchor="middle" fill="#343a40">Smart Attendance System</text>
</svg> 